REM DIRINDEX 1\6,1\2\7,1\2\8,1\2\9,1\3\10,1\3\11,1\4\12,1\4\13,1\4\14,1\5\15,1\5\16,1\5\17
REM DIRNAME cjc040,folder01,folder02,folder03,folder04,folder05,folder06,folder07,folder08,folder09,folder10,folder11,folder12,folder13,folder14,folder15,folder16
TITLE ""
FILE "P2Q_t2_0090-0107.mp3" MP3
  TRACK 01 AUDIO
    TITLE "7:cjc040_4096"
    INDEX 01 00:00:00
  TRACK 02 AUDIO
    TITLE "0:"
    INDEX 01 00:00:74
  TRACK 03 AUDIO
    TITLE "8:cjc040_4097"
    INDEX 01 00:01:52
  TRACK 04 AUDIO
    TITLE "0:"
    INDEX 01 00:03:49
  TRACK 05 AUDIO
    TITLE "9:cjc040_4098"
    INDEX 01 00:04:31
  TRACK 06 AUDIO
    TITLE "0:"
    INDEX 01 00:05:40
  TRACK 07 AUDIO
    TITLE "7:cjc040_4099"
    INDEX 01 00:07:21
  TRACK 08 AUDIO
    TITLE "0:"
    INDEX 01 00:08:34
  TRACK 09 AUDIO
    TITLE "8:cjc040_4100"
    INDEX 01 00:09:02
  TRACK 10 AUDIO
    TITLE "0:"
    INDEX 01 00:10:12
  TRACK 11 AUDIO
    TITLE "9:cjc040_4101"
    INDEX 01 00:10:65
  TRACK 12 AUDIO
    TITLE "0:"
    INDEX 01 00:12:05
  TRACK 13 AUDIO
    TITLE "7:cjc040_4102"
    INDEX 01 00:13:61
  TRACK 14 AUDIO
    TITLE "0:"
    INDEX 01 00:14:60
  TRACK 15 AUDIO
    TITLE "8:cjc040_4103"
    INDEX 01 00:15:38
  TRACK 16 AUDIO
    TITLE "0:"
    INDEX 01 00:16:48
  TRACK 17 AUDIO
    TITLE "9:cjc040_4104"
    INDEX 01 00:17:21
  TRACK 18 AUDIO
    TITLE "0:"
    INDEX 01 00:18:23
  TRACK 19 AUDIO
    TITLE "7:cjc040_4105"
    INDEX 01 00:20:00
  TRACK 20 AUDIO
    TITLE "0:"
    INDEX 01 00:21:25
  TRACK 21 AUDIO
    TITLE "8:cjc040_4106"
    INDEX 01 00:22:03
  TRACK 22 AUDIO
    TITLE "0:"
    INDEX 01 00:25:19
  TRACK 23 AUDIO
    TITLE "9:cjc040_4107"
    INDEX 01 00:25:72
  TRACK 24 AUDIO
    TITLE "0:"
    INDEX 01 00:27:14
  TRACK 25 AUDIO
    TITLE "7:cjc040_4108"
    INDEX 01 00:29:01
  TRACK 26 AUDIO
    TITLE "0:"
    INDEX 01 00:30:20
  TRACK 27 AUDIO
    TITLE "8:cjc040_4109"
    INDEX 01 00:31:04
  TRACK 28 AUDIO
    TITLE "0:"
    INDEX 01 00:33:07
  TRACK 29 AUDIO
    TITLE "9:cjc040_4110"
    INDEX 01 00:33:64
  TRACK 30 AUDIO
    TITLE "0:"
    INDEX 01 00:35:08
  TRACK 31 AUDIO
    TITLE "7:cjc040_4111"
    INDEX 01 00:36:64
  TRACK 32 AUDIO
    TITLE "0:"
    INDEX 01 00:37:73
  TRACK 33 AUDIO
    TITLE "8:cjc040_4112"
    INDEX 01 00:38:57
  TRACK 34 AUDIO
    TITLE "0:"
    INDEX 01 00:42:12
  TRACK 35 AUDIO
    TITLE "9:cjc040_4113"
    INDEX 01 00:42:70
  TRACK 36 AUDIO
    TITLE "0:"
    INDEX 01 00:44:03
  TRACK 37 AUDIO
    TITLE "7:cjc040_4114"
    INDEX 01 00:45:69
  TRACK 38 AUDIO
    TITLE "0:"
    INDEX 01 00:47:09
  TRACK 39 AUDIO
    TITLE "8:cjc040_4115"
    INDEX 01 00:47:70
  TRACK 40 AUDIO
    TITLE "0:"
    INDEX 01 00:49:69
  TRACK 41 AUDIO
    TITLE "9:cjc040_4116"
    INDEX 01 00:50:44
  TRACK 42 AUDIO
    TITLE "0:"
    INDEX 01 00:51:60
  TRACK 43 AUDIO
    TITLE "7:cjc040_4117"
    INDEX 01 00:53:45
  TRACK 44 AUDIO
    TITLE "0:"
    INDEX 01 00:54:42
  TRACK 45 AUDIO
    TITLE "8:cjc040_4118"
    INDEX 01 00:55:32
  TRACK 46 AUDIO
    TITLE "0:"
    INDEX 01 00:58:60
  TRACK 47 AUDIO
    TITLE "9:cjc040_4119"
    INDEX 01 00:59:36
  TRACK 48 AUDIO
    TITLE "0:"
    INDEX 01 01:00:35
  TRACK 49 AUDIO
    TITLE "7:cjc040_4120"
    INDEX 01 01:02:20
  TRACK 50 AUDIO
    TITLE "0:"
    INDEX 01 01:03:27
  TRACK 51 AUDIO
    TITLE "8:cjc040_4121"
    INDEX 01 01:04:13
  TRACK 52 AUDIO
    TITLE "0:"
    INDEX 01 01:07:27
  TRACK 53 AUDIO
    TITLE "9:cjc040_4122"
    INDEX 01 01:08:07
  TRACK 54 AUDIO
    TITLE "0:"
    INDEX 01 01:09:18
  TRACK 55 AUDIO
    TITLE "7:cjc040_4123"
    INDEX 01 01:11:03
  TRACK 56 AUDIO
    TITLE "0:"
    INDEX 01 01:12:13
  TRACK 57 AUDIO
    TITLE "8:cjc040_4124"
    INDEX 01 01:12:73
  TRACK 58 AUDIO
    TITLE "0:"
    INDEX 01 01:15:39
  TRACK 59 AUDIO
    TITLE "9:cjc040_4125"
    INDEX 01 01:16:16
  TRACK 60 AUDIO
    TITLE "0:"
    INDEX 01 01:17:22
  TRACK 61 AUDIO
    TITLE "7:cjc040_4126"
    INDEX 01 01:19:03
  TRACK 62 AUDIO
    TITLE "0:"
    INDEX 01 01:20:18
  TRACK 63 AUDIO
    TITLE "8:cjc040_4127"
    INDEX 01 01:20:71
  TRACK 64 AUDIO
    TITLE "0:"
    INDEX 01 01:23:54
  TRACK 65 AUDIO
    TITLE "9:cjc040_4128"
    INDEX 01 01:24:32
  TRACK 66 AUDIO
    TITLE "0:"
    INDEX 01 01:25:43
  TRACK 67 AUDIO
    TITLE "7:cjc040_4129"
    INDEX 01 01:27:24
  TRACK 68 AUDIO
    TITLE "0:"
    INDEX 01 01:28:43
  TRACK 69 AUDIO
    TITLE "8:cjc040_4130"
    INDEX 01 01:29:25
  TRACK 70 AUDIO
    TITLE "0:"
    INDEX 01 01:33:64
  TRACK 71 AUDIO
    TITLE "9:cjc040_4131"
    INDEX 01 01:34:42
  TRACK 72 AUDIO
    TITLE "0:"
    INDEX 01 01:35:59
  TRACK 73 AUDIO
    TITLE "7:cjc040_4132"
    INDEX 01 01:37:36
  TRACK 74 AUDIO
    TITLE "0:"
    INDEX 01 01:38:51
  TRACK 75 AUDIO
    TITLE "8:cjc040_4133"
    INDEX 01 01:39:27
  TRACK 76 AUDIO
    TITLE "0:"
    INDEX 01 01:40:68
  TRACK 77 AUDIO
    TITLE "9:cjc040_4134"
    INDEX 01 01:41:48
  TRACK 78 AUDIO
    TITLE "0:"
    INDEX 01 01:42:67
  TRACK 79 AUDIO
    TITLE "7:cjc040_4135"
    INDEX 01 01:44:50
  TRACK 80 AUDIO
    TITLE "0:"
    INDEX 01 01:45:51
  TRACK 81 AUDIO
    TITLE "8:cjc040_4136"
    INDEX 01 01:46:33
  TRACK 82 AUDIO
    TITLE "0:"
    INDEX 01 01:52:04
  TRACK 83 AUDIO
    TITLE "9:cjc040_4137"
    INDEX 01 01:52:55
  TRACK 84 AUDIO
    TITLE "0:"
    INDEX 01 01:53:59
  TRACK 85 AUDIO
    TITLE "7:cjc040_4138"
    INDEX 01 01:55:44
  TRACK 86 AUDIO
    TITLE "0:"
    INDEX 01 01:56:61
  TRACK 87 AUDIO
    TITLE "8:cjc040_4139"
    INDEX 01 01:57:45
  TRACK 88 AUDIO
    TITLE "0:"
    INDEX 01 01:59:04
  TRACK 89 AUDIO
    TITLE "9:cjc040_4140"
    INDEX 01 01:59:59
  TRACK 90 AUDIO
    TITLE "0:"
    INDEX 01 02:01:01
  TRACK 91 AUDIO
    TITLE "7:cjc040_4141"
    INDEX 01 02:02:60
  TRACK 92 AUDIO
    TITLE "0:"
    INDEX 01 02:04:10
  TRACK 93 AUDIO
    TITLE "8:cjc040_4142"
    INDEX 01 02:04:66
  TRACK 94 AUDIO
    TITLE "0:"
    INDEX 01 02:06:36
  TRACK 95 AUDIO
    TITLE "9:cjc040_4143"
    INDEX 01 02:07:14
  TRACK 96 AUDIO
    TITLE "0:"
    INDEX 01 02:08:39
  TRACK 97 AUDIO
    TITLE "7:cjc040_4144"
    INDEX 01 02:10:22
  TRACK 98 AUDIO
    TITLE "0:"
    INDEX 01 02:11:43
  TRACK 99 AUDIO
    TITLE "8:cjc040_4145"
    INDEX 01 02:12:23
  TRACK 100 AUDIO
    TITLE "0:"
    INDEX 01 02:15:15
  TRACK 101 AUDIO
    TITLE "9:cjc040_4146"
    INDEX 01 02:15:70
  TRACK 102 AUDIO
    TITLE "0:"
    INDEX 01 02:17:16
  TRACK 103 AUDIO
    TITLE "7:cjc040_4147"
    INDEX 01 02:18:72
  TRACK 104 AUDIO
    TITLE "0:"
    INDEX 01 02:20:16
  TRACK 105 AUDIO
    TITLE "8:cjc040_4148"
    INDEX 01 02:21:06
  TRACK 106 AUDIO
    TITLE "0:"
    INDEX 01 02:23:48
  TRACK 107 AUDIO
    TITLE "9:cjc040_4149"
    INDEX 01 02:24:24
  TRACK 108 AUDIO
    TITLE "0:"
    INDEX 01 02:25:47
